<svg xmlns="http://www.w3.org/2000/svg" style="display:none">

  <!--
    ================================================
    SPRITE SVG — Complete Icon System (v1.0)
    30 icônes × 3 variantes = 90 symboles
    Convention  : icon-{nom}-{outline|filled|duotone}
    Intégration : <svg width="24" height="24"><use href="#icon-{nom}-{style}" /></svg>
    Couleur     : contrôlée via CSS color / currentColor
    ================================================
  -->


  <!-- ================================================ -->
  <!--            🧭 NAVIGATION & STRUCTURE             -->
  <!-- ================================================ -->

  <!-- BURGER -->
  <symbol id="icon-burger-outline" viewBox="0 0 24 24" fill="none" stroke="currentColor" stroke-width="2" stroke-linecap="round">
    <line x1="3" y1="6"  x2="21" y2="6"/>
    <line x1="3" y1="12" x2="21" y2="12"/>
    <line x1="3" y1="18" x2="21" y2="18"/>
  </symbol>
  <symbol id="icon-burger-filled" viewBox="0 0 24 24" fill="currentColor">
    <rect x="3" y="5"  width="18" height="2.5" rx="1.25"/>
    <rect x="3" y="11" width="18" height="2.5" rx="1.25"/>
    <rect x="3" y="17" width="18" height="2.5" rx="1.25"/>
  </symbol>
  <symbol id="icon-burger-duotone" viewBox="0 0 24 24" fill="currentColor">
    <rect opacity="0.3" x="3" y="5"  width="18" height="2.5" rx="1.25"/>
    <rect opacity="0.3" x="3" y="17" width="18" height="2.5" rx="1.25"/>
    <rect x="3" y="11" width="18" height="2.5" rx="1.25"/>
  </symbol>

  <!-- HOME -->
  <symbol id="icon-home-outline" viewBox="0 0 24 24" fill="none" stroke="currentColor" stroke-width="2" stroke-linecap="round" stroke-linejoin="round">
    <path d="M3 9.5L12 3l9 6.5V20a1 1 0 0 1-1 1H15v-5h-6v5H4a1 1 0 0 1-1-1V9.5z"/>
  </symbol>
  <symbol id="icon-home-filled" viewBox="0 0 24 24" fill="currentColor">
    <path d="M12 2.1L1 10.5V21h8v-5h6v5h8V10.5L12 2.1z"/>
  </symbol>
  <symbol id="icon-home-duotone" viewBox="0 0 24 24" fill="currentColor">
    <path opacity="0.3" d="M12 2.1L1 10.5V21h8v-5h6v5h8V10.5L12 2.1z"/>
    <path d="M9 16h6v5H9z"/>
  </symbol>

  <!-- ARROW LEFT -->
  <symbol id="icon-arrow-left-outline" viewBox="0 0 24 24" fill="none" stroke="currentColor" stroke-width="2" stroke-linecap="round" stroke-linejoin="round">
    <line x1="19" y1="12" x2="5" y2="12"/>
    <polyline points="12 19 5 12 12 5"/>
  </symbol>
  <symbol id="icon-arrow-left-filled" viewBox="0 0 24 24" fill="currentColor">
    <path d="M20 11H7.83l5.59-5.59L12 4l-8 8 8 8 1.41-1.41L7.83 13H20v-2z"/>
  </symbol>
  <symbol id="icon-arrow-left-duotone" viewBox="0 0 24 24" fill="currentColor">
    <circle opacity="0.3" cx="12" cy="12" r="10"/>
    <path d="M13.41 7.41L12 6l-6 6 6 6 1.41-1.41L9.83 13H18v-2H9.83l3.58-3.59z"/>
  </symbol>

  <!-- ARROW RIGHT -->
  <symbol id="icon-arrow-right-outline" viewBox="0 0 24 24" fill="none" stroke="currentColor" stroke-width="2" stroke-linecap="round" stroke-linejoin="round">
    <line x1="5" y1="12" x2="19" y2="12"/>
    <polyline points="12 5 19 12 12 19"/>
  </symbol>
  <symbol id="icon-arrow-right-filled" viewBox="0 0 24 24" fill="currentColor">
    <path d="M4 11h12.17l-5.59-5.59L12 4l8 8-8 8-1.41-1.41L16.17 13H4v-2z"/>
  </symbol>
  <symbol id="icon-arrow-right-duotone" viewBox="0 0 24 24" fill="currentColor">
    <circle opacity="0.3" cx="12" cy="12" r="10"/>
    <path d="M10.59 16.59L12 18l6-6-6-6-1.41 1.41L14.17 11H6v2h8.17l-3.58 3.59z"/>
  </symbol>

  <!-- CHEVRON DOWN -->
  <symbol id="icon-chevron-down-outline" viewBox="0 0 24 24" fill="none" stroke="currentColor" stroke-width="2" stroke-linecap="round" stroke-linejoin="round">
    <polyline points="6 9 12 15 18 9"/>
  </symbol>
  <symbol id="icon-chevron-down-filled" viewBox="0 0 24 24" fill="currentColor">
    <path d="M7.41 8.59L12 13.17l4.59-4.58L18 10l-6 6-6-6 1.41-1.41z"/>
  </symbol>
  <symbol id="icon-chevron-down-duotone" viewBox="0 0 24 24" fill="currentColor">
    <circle opacity="0.3" cx="12" cy="12" r="10"/>
    <path d="M7.41 9.59L12 14.17l4.59-4.58L18 11l-6 6-6-6 1.41-1.41z"/>
  </symbol>

  <!-- CLOSE -->
  <symbol id="icon-close-outline" viewBox="0 0 24 24" fill="none" stroke="currentColor" stroke-width="2" stroke-linecap="round">
    <line x1="18" y1="6"  x2="6"  y2="18"/>
    <line x1="6"  y1="6"  x2="18" y2="18"/>
  </symbol>
  <symbol id="icon-close-filled" viewBox="0 0 24 24" fill="currentColor">
    <path d="M19 6.41L17.59 5 12 10.59 6.41 5 5 6.41 10.59 12 5 17.59 6.41 19 12 13.41 17.59 19 19 17.59 13.41 12z"/>
  </symbol>
  <symbol id="icon-close-duotone" viewBox="0 0 24 24" fill="currentColor">
    <circle opacity="0.3" cx="12" cy="12" r="10"/>
    <path d="M15.59 7L12 10.59 8.41 7 7 8.41 10.59 12 7 15.59 8.41 17 12 13.41 15.59 17 17 15.59 13.41 12 17 8.41z"/>
  </symbol>


  <!-- ================================================ -->
  <!--             👤 UTILISATEUR & AUTH                -->
  <!-- ================================================ -->

  <!-- USER -->
  <symbol id="icon-user-outline" viewBox="0 0 24 24" fill="none" stroke="currentColor" stroke-width="2" stroke-linecap="round" stroke-linejoin="round">
    <circle cx="12" cy="8" r="4"/>
    <path d="M4 20c0-4 3.6-7 8-7s8 3 8 7"/>
  </symbol>
  <symbol id="icon-user-filled" viewBox="0 0 24 24" fill="currentColor">
    <circle cx="12" cy="8" r="4"/>
    <path d="M4 20c0-4 3.6-7 8-7s8 3 8 7H4z"/>
  </symbol>
  <symbol id="icon-user-duotone" viewBox="0 0 24 24" fill="currentColor">
    <path opacity="0.3" d="M4 20c0-4 3.6-7 8-7s8 3 8 7H4z"/>
    <circle cx="12" cy="8" r="4"/>
  </symbol>

  <!-- LOCK -->
  <symbol id="icon-lock-outline" viewBox="0 0 24 24" fill="none" stroke="currentColor" stroke-width="2" stroke-linecap="round" stroke-linejoin="round">
    <rect x="5" y="11" width="14" height="10" rx="2"/>
    <path d="M8 11V7a4 4 0 0 1 8 0v4"/>
  </symbol>
  <symbol id="icon-lock-filled" viewBox="0 0 24 24" fill="currentColor">
    <path d="M18 10h-1V7A5 5 0 0 0 7 7v3H6a2 2 0 0 0-2 2v8a2 2 0 0 0 2 2h12a2 2 0 0 0 2-2v-8a2 2 0 0 0-2-2zm-6 7a1.5 1.5 0 1 1 0-3 1.5 1.5 0 0 1 0 3zm3.1-7H8.9V7a3.1 3.1 0 0 1 6.2 0v3z"/>
  </symbol>
  <symbol id="icon-lock-duotone" viewBox="0 0 24 24" fill="currentColor">
    <rect opacity="0.3" x="5" y="11" width="14" height="10" rx="2"/>
    <path d="M8 11V7a4 4 0 0 1 8 0v4H8z"/>
    <circle cx="12" cy="16" r="1.5"/>
  </symbol>

  <!-- EYE -->
  <symbol id="icon-eye-outline" viewBox="0 0 24 24" fill="none" stroke="currentColor" stroke-width="2" stroke-linecap="round" stroke-linejoin="round">
    <path d="M1 12S5 5 12 5s11 7 11 7-4 7-11 7S1 12 1 12z"/>
    <circle cx="12" cy="12" r="3"/>
  </symbol>
  <symbol id="icon-eye-filled" viewBox="0 0 24 24" fill="currentColor">
    <path d="M12 5C5.636 5 1 12 1 12s4.636 7 11 7 11-7 11-7-4.636-7-11-7zm0 12a5 5 0 1 1 0-10 5 5 0 0 1 0 10z"/>
    <circle cx="12" cy="12" r="3"/>
  </symbol>
  <symbol id="icon-eye-duotone" viewBox="0 0 24 24" fill="currentColor">
    <path opacity="0.3" d="M12 5C5.636 5 1 12 1 12s4.636 7 11 7 11-7 11-7-4.636-7-11-7z"/>
    <circle cx="12" cy="12" r="3"/>
  </symbol>

  <!-- EYE OFF -->
  <symbol id="icon-eye-off-outline" viewBox="0 0 24 24" fill="none" stroke="currentColor" stroke-width="2" stroke-linecap="round" stroke-linejoin="round">
    <path d="M17.94 17.94A10.07 10.07 0 0 1 12 20c-7 0-11-8-11-8a18.45 18.45 0 0 1 5.06-5.94"/>
    <path d="M9.9 4.24A9.12 9.12 0 0 1 12 4c7 0 11 8 11 8a18.5 18.5 0 0 1-2.16 3.19"/>
    <line x1="1" y1="1" x2="23" y2="23"/>
  </symbol>
  <symbol id="icon-eye-off-filled" viewBox="0 0 24 24" fill="currentColor">
    <path d="M2.71 3.29a1 1 0 0 0-1.42 1.42l3.2 3.2A18.1 18.1 0 0 0 1 12s4 8 11 8a10.2 10.2 0 0 0 5.38-1.56l2.91 2.85a1 1 0 1 0 1.42-1.42L2.71 3.29zM12 17a5 5 0 0 1-4.91-4.08L10.46 16A5 5 0 0 1 12 17zm1.54-2.46A5 5 0 0 1 7.46 9.13L8.9 10.6A3 3 0 0 0 12 15l1.54 1.54z"/>
    <path d="M12 5c7 0 11 7 11 7a18.5 18.5 0 0 1-3.53 4.61l-1.43-1.43A16.3 16.3 0 0 0 21 12s-3.33-5-9-5a8.9 8.9 0 0 0-2.35.33L8.18 5.86A10.2 10.2 0 0 1 12 5z"/>
  </symbol>
  <symbol id="icon-eye-off-duotone" viewBox="0 0 24 24" fill="currentColor">
    <path opacity="0.3" d="M12 5C5 5 1 12 1 12s4 7 11 7 11-7 11-7-4-7-11-7z"/>
    <line x1="2" y1="2" x2="22" y2="22" stroke="currentColor" stroke-width="2" stroke-linecap="round"/>
  </symbol>


  <!-- ================================================ -->
  <!--              ⚙️ ACTIONS & OUTILS                 -->
  <!-- ================================================ -->

  <!-- SEARCH -->
  <symbol id="icon-search-outline" viewBox="0 0 24 24" fill="none" stroke="currentColor" stroke-width="2" stroke-linecap="round" stroke-linejoin="round">
    <circle cx="11" cy="11" r="7"/>
    <line x1="21" y1="21" x2="16.65" y2="16.65"/>
  </symbol>
  <symbol id="icon-search-filled" viewBox="0 0 24 24" fill="currentColor">
    <path d="M15.5 14h-.79l-.28-.27A6.47 6.47 0 0 0 16 9.5a6.5 6.5 0 1 0-6.5 6.5c1.61 0 3.09-.59 4.23-1.57l.27.28v.79l5 4.99L20.49 19l-4.99-5zm-6 0C7.01 14 5 11.99 5 9.5S7.01 5 9.5 5 14 7.01 14 9.5 11.99 14 9.5 14z"/>
  </symbol>
  <symbol id="icon-search-duotone" viewBox="0 0 24 24" fill="currentColor">
    <circle opacity="0.3" cx="11" cy="11" r="7"/>
    <path d="M19.79 18.38l-3.9-3.9c.7-1 1.11-2.2 1.11-3.48a6.5 6.5 0 0 1-.1 1.1l3.4 3.41-0.51.87z"/>
    <line x1="16.5" y1="16.5" x2="21" y2="21" stroke="currentColor" stroke-width="2.5" stroke-linecap="round"/>
  </symbol>

  <!-- SETTINGS -->
  <symbol id="icon-settings-outline" viewBox="0 0 24 24" fill="none" stroke="currentColor" stroke-width="2" stroke-linecap="round" stroke-linejoin="round">
    <circle cx="12" cy="12" r="3"/>
    <path d="M19.4 15a1.65 1.65 0 0 0 .33 1.82l.06.06a2 2 0 0 1-2.83 2.83l-.06-.06a1.65 1.65 0 0 0-1.82-.33 1.65 1.65 0 0 0-1 1.51V21a2 2 0 0 1-4 0v-.09A1.65 1.65 0 0 0 9 19.4a1.65 1.65 0 0 0-1.82.33l-.06.06a2 2 0 0 1-2.83-2.83l.06-.06A1.65 1.65 0 0 0 4.68 15a1.65 1.65 0 0 0-1.51-1H3a2 2 0 0 1 0-4h.09A1.65 1.65 0 0 0 4.6 9a1.65 1.65 0 0 0-.33-1.82l-.06-.06a2 2 0 0 1 2.83-2.83l.06.06A1.65 1.65 0 0 0 9 4.68a1.65 1.65 0 0 0 1-1.51V3a2 2 0 0 1 4 0v.09a1.65 1.65 0 0 0 1 1.51 1.65 1.65 0 0 0 1.82-.33l.06-.06a2 2 0 0 1 2.83 2.83l-.06.06A1.65 1.65 0 0 0 19.4 9a1.65 1.65 0 0 0 1.51 1H21a2 2 0 0 1 0 4h-.09a1.65 1.65 0 0 0-1.51 1z"/>
  </symbol>
  <symbol id="icon-settings-filled" viewBox="0 0 24 24" fill="currentColor">
    <path d="M19.14 12.94c.04-.3.06-.61.06-.94s-.02-.64-.07-.94l2.03-1.58a.49.49 0 0 0 .12-.61l-1.92-3.32a.49.49 0 0 0-.59-.22l-2.39.96c-.5-.38-1.03-.7-1.62-.94l-.36-2.54a.484.484 0 0 0-.48-.41h-3.84c-.24 0-.43.17-.47.41l-.36 2.54c-.59.24-1.13.57-1.62.94l-2.39-.96c-.22-.08-.47 0-.59.22L2.74 8.87a.49.49 0 0 0 .12.61l2.03 1.58c-.05.3-.09.63-.09.94s.02.64.07.94l-2.03 1.58a.49.49 0 0 0-.12.61l1.92 3.32c.12.22.37.29.59.22l2.39-.96c.5.38 1.03.7 1.62.94l.36 2.54c.05.24.24.41.48.41h3.84c.24 0 .44-.17.47-.41l.36-2.54c.59-.24 1.13-.56 1.62-.94l2.39.96c.22.08.47 0 .59-.22l1.92-3.32c.12-.22.07-.47-.12-.61l-2.01-1.58zM12 15.6c-1.98 0-3.6-1.62-3.6-3.6s1.62-3.6 3.6-3.6 3.6 1.62 3.6 3.6-1.62 3.6-3.6 3.6z"/>
  </symbol>
  <symbol id="icon-settings-duotone" viewBox="0 0 24 24" fill="currentColor">
    <path opacity="0.3" d="M19.14 12.94c.04-.3.06-.61.06-.94s-.02-.64-.07-.94l2.03-1.58a.49.49 0 0 0 .12-.61l-1.92-3.32a.49.49 0 0 0-.59-.22l-2.39.96c-.5-.38-1.03-.7-1.62-.94l-.36-2.54a.484.484 0 0 0-.48-.41h-3.84c-.24 0-.43.17-.47.41l-.36 2.54c-.59.24-1.13.57-1.62.94l-2.39-.96c-.22-.08-.47 0-.59.22L2.74 8.87a.49.49 0 0 0 .12.61l2.03 1.58c-.05.3-.09.63-.09.94s.02.64.07.94l-2.03 1.58a.49.49 0 0 0-.12.61l1.92 3.32c.12.22.37.29.59.22l2.39-.96c.5.38 1.03.7 1.62.94l.36 2.54c.05.24.24.41.48.41h3.84c.24 0 .44-.17.47-.41l.36-2.54c.59-.24 1.13-.56 1.62-.94l2.39.96c.22.08.47 0 .59-.22l1.92-3.32c.12-.22.07-.47-.12-.61l-2.01-1.58z"/>
    <circle cx="12" cy="12" r="3"/>
  </symbol>

  <!-- EDIT -->
  <symbol id="icon-edit-outline" viewBox="0 0 24 24" fill="none" stroke="currentColor" stroke-width="2" stroke-linecap="round" stroke-linejoin="round">
    <path d="M11 4H4a2 2 0 0 0-2 2v14a2 2 0 0 0 2 2h14a2 2 0 0 0 2-2v-7"/>
    <path d="M18.5 2.5a2.121 2.121 0 0 1 3 3L12 15l-4 1 1-4 9.5-9.5z"/>
  </symbol>
  <symbol id="icon-edit-filled" viewBox="0 0 24 24" fill="currentColor">
    <path d="M3 17.25V21h3.75L17.81 9.94l-3.75-3.75L3 17.25zM20.71 7.04a1 1 0 0 0 0-1.41l-2.34-2.34a1 1 0 0 0-1.41 0l-1.83 1.83 3.75 3.75 1.83-1.83z"/>
  </symbol>
  <symbol id="icon-edit-duotone" viewBox="0 0 24 24" fill="currentColor">
    <path opacity="0.3" d="M3 17.25V21h3.75L17.81 9.94l-3.75-3.75L3 17.25z"/>
    <path d="M20.71 7.04a1 1 0 0 0 0-1.41l-2.34-2.34a1 1 0 0 0-1.41 0l-1.83 1.83 3.75 3.75 1.83-1.83z"/>
  </symbol>

  <!-- TRASH -->
  <symbol id="icon-trash-outline" viewBox="0 0 24 24" fill="none" stroke="currentColor" stroke-width="2" stroke-linecap="round" stroke-linejoin="round">
    <polyline points="3 6 5 6 21 6"/>
    <path d="M19 6l-1 14a2 2 0 0 1-2 2H8a2 2 0 0 1-2-2L5 6"/>
    <path d="M10 11v6M14 11v6"/>
    <path d="M9 6V4a1 1 0 0 1 1-1h4a1 1 0 0 1 1 1v2"/>
  </symbol>
  <symbol id="icon-trash-filled" viewBox="0 0 24 24" fill="currentColor">
    <path d="M9 3v1H4v2h16V4h-5V3H9zm-2 4l1 13h8l1-13H7z"/>
  </symbol>
  <symbol id="icon-trash-duotone" viewBox="0 0 24 24" fill="currentColor">
    <path opacity="0.3" d="M7 7l1 13h8l1-13H7z"/>
    <path d="M9 3v1H4v2h16V4h-5V3H9zm1 7v7h1v-7h-1zm3 0v7h1v-7h-1z"/>
  </symbol>

  <!-- DOWNLOAD -->
  <symbol id="icon-download-outline" viewBox="0 0 24 24" fill="none" stroke="currentColor" stroke-width="2" stroke-linecap="round" stroke-linejoin="round">
    <path d="M21 15v4a2 2 0 0 1-2 2H5a2 2 0 0 1-2-2v-4"/>
    <polyline points="7 10 12 15 17 10"/>
    <line x1="12" y1="15" x2="12" y2="3"/>
  </symbol>
  <symbol id="icon-download-filled" viewBox="0 0 24 24" fill="currentColor">
    <path d="M19 9h-4V3H9v6H5l7 8 7-8zm-14 9v2h14v-2H5z"/>
  </symbol>
  <symbol id="icon-download-duotone" viewBox="0 0 24 24" fill="currentColor">
    <rect opacity="0.3" x="3" y="17" width="18" height="4" rx="1"/>
    <path d="M19 9h-4V3H9v6H5l7 8 7-8z"/>
  </symbol>

  <!-- UPLOAD -->
  <symbol id="icon-upload-outline" viewBox="0 0 24 24" fill="none" stroke="currentColor" stroke-width="2" stroke-linecap="round" stroke-linejoin="round">
    <path d="M21 15v4a2 2 0 0 1-2 2H5a2 2 0 0 1-2-2v-4"/>
    <polyline points="17 8 12 3 7 8"/>
    <line x1="12" y1="3" x2="12" y2="15"/>
  </symbol>
  <symbol id="icon-upload-filled" viewBox="0 0 24 24" fill="currentColor">
    <path d="M5 15h4v6h6v-6h4l-7-8-7 8zm0 6v2h14v-2H5z"/>
  </symbol>
  <symbol id="icon-upload-duotone" viewBox="0 0 24 24" fill="currentColor">
    <rect opacity="0.3" x="3" y="17" width="18" height="4" rx="1"/>
    <path d="M5 15h4v6h6v-6h4l-7-8-7 8z"/>
  </symbol>

  <!-- COPY -->
  <symbol id="icon-copy-outline" viewBox="0 0 24 24" fill="none" stroke="currentColor" stroke-width="2" stroke-linecap="round" stroke-linejoin="round">
    <rect x="9" y="9" width="13" height="13" rx="2"/>
    <path d="M5 15H4a2 2 0 0 1-2-2V4a2 2 0 0 1 2-2h9a2 2 0 0 1 2 2v1"/>
  </symbol>
  <symbol id="icon-copy-filled" viewBox="0 0 24 24" fill="currentColor">
    <path d="M16 1H4a2 2 0 0 0-2 2v14h2V3h12V1zm3 4H8a2 2 0 0 0-2 2v14a2 2 0 0 0 2 2h11a2 2 0 0 0 2-2V7a2 2 0 0 0-2-2zm0 16H8V7h11v14z"/>
  </symbol>
  <symbol id="icon-copy-duotone" viewBox="0 0 24 24" fill="currentColor">
    <rect opacity="0.3" x="9" y="9" width="13" height="13" rx="2"/>
    <path d="M5 15H4a2 2 0 0 1-2-2V4a2 2 0 0 1 2-2h9a2 2 0 0 1 2 2v1H7a2 2 0 0 0-2 2v8z"/>
  </symbol>


  <!-- ================================================ -->
  <!--               💬 COMMUNICATION                   -->
  <!-- ================================================ -->

  <!-- BELL -->
  <symbol id="icon-bell-outline" viewBox="0 0 24 24" fill="none" stroke="currentColor" stroke-width="2" stroke-linecap="round" stroke-linejoin="round">
    <path d="M18 8A6 6 0 0 0 6 8c0 7-3 9-3 9h18s-3-2-3-9"/>
    <path d="M13.73 21a2 2 0 0 1-3.46 0"/>
  </symbol>
  <symbol id="icon-bell-filled" viewBox="0 0 24 24" fill="currentColor">
    <path d="M12 22a2 2 0 0 0 2-2h-4a2 2 0 0 0 2 2zm6-6V11a6 6 0 0 0-5-5.92V4a1 1 0 0 0-2 0v1.08A6 6 0 0 0 6 11v5l-2 2v1h16v-1l-2-2z"/>
  </symbol>
  <symbol id="icon-bell-duotone" viewBox="0 0 24 24" fill="currentColor">
    <path opacity="0.3" d="M18 16V11a6 6 0 0 0-5-5.92V4a1 1 0 0 0-2 0v1.08A6 6 0 0 0 6 11v5l-2 2v1h16v-1l-2-2z"/>
    <path d="M12 22a2 2 0 0 0 2-2h-4a2 2 0 0 0 2 2z"/>
  </symbol>

  <!-- MAIL -->
  <symbol id="icon-mail-outline" viewBox="0 0 24 24" fill="none" stroke="currentColor" stroke-width="2" stroke-linecap="round" stroke-linejoin="round">
    <path d="M4 4h16a2 2 0 0 1 2 2v12a2 2 0 0 1-2 2H4a2 2 0 0 1-2-2V6a2 2 0 0 1 2-2z"/>
    <polyline points="22 6 12 13 2 6"/>
  </symbol>
  <symbol id="icon-mail-filled" viewBox="0 0 24 24" fill="currentColor">
    <path d="M20 4H4a2 2 0 0 0-2 2v12a2 2 0 0 0 2 2h16a2 2 0 0 0 2-2V6a2 2 0 0 0-2-2zm0 4.7l-8 5.33L4 8.7V6.97l8 5.33 8-5.33V8.7z"/>
  </symbol>
  <symbol id="icon-mail-duotone" viewBox="0 0 24 24" fill="currentColor">
    <rect opacity="0.3" x="2" y="4" width="20" height="16" rx="2"/>
    <path d="M22 6.97l-8 5.33-8-5.33V8.7l8 5.33 8-5.33V6.97z"/>
  </symbol>

  <!-- CHAT -->
  <symbol id="icon-chat-outline" viewBox="0 0 24 24" fill="none" stroke="currentColor" stroke-width="2" stroke-linecap="round" stroke-linejoin="round">
    <path d="M21 15a2 2 0 0 1-2 2H7l-4 4V5a2 2 0 0 1 2-2h14a2 2 0 0 1 2 2z"/>
  </symbol>
  <symbol id="icon-chat-filled" viewBox="0 0 24 24" fill="currentColor">
    <path d="M20 2H4a2 2 0 0 0-2 2v18l4-4h14a2 2 0 0 0 2-2V4a2 2 0 0 0-2-2z"/>
  </symbol>
  <symbol id="icon-chat-duotone" viewBox="0 0 24 24" fill="currentColor">
    <path opacity="0.3" d="M20 2H4a2 2 0 0 0-2 2v18l4-4h14a2 2 0 0 0 2-2V4a2 2 0 0 0-2-2z"/>
    <path d="M7 9h10v2H7zm0 4h7v2H7z"/>
  </symbol>

  <!-- PHONE -->
  <symbol id="icon-phone-outline" viewBox="0 0 24 24" fill="none" stroke="currentColor" stroke-width="2" stroke-linecap="round" stroke-linejoin="round">
    <path d="M22 16.92v3a2 2 0 0 1-2.18 2 19.79 19.79 0 0 1-8.63-3.07A19.5 19.5 0 0 1 4.69 12a19.79 19.79 0 0 1-3.07-8.67A2 2 0 0 1 3.6 1.21h3a2 2 0 0 1 2 1.72c.127.96.361 1.903.7 2.81a2 2 0 0 1-.45 2.11L7.91 8.91a16 16 0 0 0 5.63 5.63l1.27-.95a2 2 0 0 1 2.11-.45c.907.339 1.85.573 2.81.7a2 2 0 0 1 1.72 2.03z"/>
  </symbol>
  <symbol id="icon-phone-filled" viewBox="0 0 24 24" fill="currentColor">
    <path d="M6.6 10.8c1.4 2.8 3.8 5.1 6.6 6.6l2.2-2.2c.3-.3.7-.4 1-.2 1.1.4 2.3.6 3.6.6.6 0 1 .4 1 1V20c0 .6-.4 1-1 1-9.4 0-17-7.6-17-17 0-.6.4-1 1-1h3.5c.6 0 1 .4 1 1 0 1.3.2 2.5.6 3.6.1.3 0 .7-.2 1L6.6 10.8z"/>
  </symbol>
  <symbol id="icon-phone-duotone" viewBox="0 0 24 24" fill="currentColor">
    <path opacity="0.3" d="M6.6 10.8c1.4 2.8 3.8 5.1 6.6 6.6l2.2-2.2c.3-.3.7-.4 1-.2 1.1.4 2.3.6 3.6.6.6 0 1 .4 1 1V20c0 .6-.4 1-1 1-9.4 0-17-7.6-17-17 0-.6.4-1 1-1h3.5c.6 0 1 .4 1 1 0 1.3.2 2.5.6 3.6.1.3 0 .7-.2 1L6.6 10.8z"/>
    <path d="M17 1a9 9 0 0 1 9 9h-2a7 7 0 0 0-7-7V1zm0 4a5 5 0 0 1 5 5h-2a3 3 0 0 0-3-3V5z"/>
  </symbol>


  <!-- ================================================ -->
  <!--             ✅ FEEDBACK & STATUT                 -->
  <!-- ================================================ -->

  <!-- CHECK -->
  <symbol id="icon-check-outline" viewBox="0 0 24 24" fill="none" stroke="currentColor" stroke-width="2" stroke-linecap="round" stroke-linejoin="round">
    <polyline points="20 6 9 17 4 12"/>
  </symbol>
  <symbol id="icon-check-filled" viewBox="0 0 24 24" fill="currentColor">
    <path d="M9 16.17L4.83 12l-1.42 1.41L9 19 21 7l-1.41-1.41L9 16.17z"/>
  </symbol>
  <symbol id="icon-check-duotone" viewBox="0 0 24 24" fill="currentColor">
    <circle opacity="0.3" cx="12" cy="12" r="10"/>
    <path d="M9 16.17L4.83 12l-1.42 1.41L9 19 21 7l-1.41-1.41L9 16.17z"/>
  </symbol>

  <!-- ALERT -->
  <symbol id="icon-alert-outline" viewBox="0 0 24 24" fill="none" stroke="currentColor" stroke-width="2" stroke-linecap="round" stroke-linejoin="round">
    <path d="M10.29 3.86L1.82 18a2 2 0 0 0 1.71 3h16.94a2 2 0 0 0 1.71-3L13.71 3.86a2 2 0 0 0-3.42 0z"/>
    <line x1="12" y1="9" x2="12" y2="13"/>
    <line x1="12" y1="17" x2="12.01" y2="17"/>
  </symbol>
  <symbol id="icon-alert-filled" viewBox="0 0 24 24" fill="currentColor">
    <path d="M1 21h22L12 2 1 21zm12-3h-2v-2h2v2zm0-4h-2v-4h2v4z"/>
  </symbol>
  <symbol id="icon-alert-duotone" viewBox="0 0 24 24" fill="currentColor">
    <path opacity="0.3" d="M1 21h22L12 2 1 21z"/>
    <path d="M13 18h-2v-2h2v2zm0-4h-2v-4h2v4z"/>
  </symbol>

  <!-- INFO -->
  <symbol id="icon-info-outline" viewBox="0 0 24 24" fill="none" stroke="currentColor" stroke-width="2" stroke-linecap="round" stroke-linejoin="round">
    <circle cx="12" cy="12" r="10"/>
    <line x1="12" y1="8" x2="12" y2="8"/>
    <line x1="12" y1="12" x2="12" y2="16"/>
  </symbol>
  <symbol id="icon-info-filled" viewBox="0 0 24 24" fill="currentColor">
    <path d="M12 2a10 10 0 1 0 0 20A10 10 0 0 0 12 2zm1 15h-2v-6h2v6zm0-8h-2V7h2v2z"/>
  </symbol>
  <symbol id="icon-info-duotone" viewBox="0 0 24 24" fill="currentColor">
    <circle opacity="0.3" cx="12" cy="12" r="10"/>
    <path d="M13 17h-2v-6h2v6zm0-8h-2V7h2v2z"/>
  </symbol>

  <!-- HEART -->
  <symbol id="icon-heart-outline" viewBox="0 0 24 24" fill="none" stroke="currentColor" stroke-width="2" stroke-linecap="round" stroke-linejoin="round">
    <path d="M20.84 4.61a5.5 5.5 0 0 0-7.78 0L12 5.67l-1.06-1.06a5.5 5.5 0 0 0-7.78 7.78l1.06 1.06L12 21.23l7.78-7.78 1.06-1.06a5.5 5.5 0 0 0 0-7.78z"/>
  </symbol>
  <symbol id="icon-heart-filled" viewBox="0 0 24 24" fill="currentColor">
    <path d="M12 21.35l-1.45-1.32C5.4 15.36 2 12.28 2 8.5 2 5.42 4.42 3 7.5 3c1.74 0 3.41.81 4.5 2.09C13.09 3.81 14.76 3 16.5 3 19.58 3 22 5.42 22 8.5c0 3.78-3.4 6.86-8.55 11.54L12 21.35z"/>
  </symbol>
  <symbol id="icon-heart-duotone" viewBox="0 0 24 24" fill="currentColor">
    <path opacity="0.3" d="M12 21.35l-1.45-1.32C5.4 15.36 2 12.28 2 8.5 2 5.42 4.42 3 7.5 3c1.74 0 3.41.81 4.5 2.09C13.09 3.81 14.76 3 16.5 3 19.58 3 22 5.42 22 8.5c0 3.78-3.4 6.86-8.55 11.54L12 21.35z"/>
    <path d="M16.5 5c-1.2 0-2.35.5-3.18 1.35L12 7.7l-1.32-1.35A4.5 4.5 0 0 0 7.5 5a4.5 4.5 0 0 0 0 9c.5 0 1-.1 1.46-.27L12 16.4l3.04-2.67c.46.17.96.27 1.46.27a4.5 4.5 0 0 0 0-9z"/>
  </symbol>

  <!-- STAR -->
  <symbol id="icon-star-outline" viewBox="0 0 24 24" fill="none" stroke="currentColor" stroke-width="2" stroke-linecap="round" stroke-linejoin="round">
    <polygon points="12 2 15.09 8.26 22 9.27 17 14.14 18.18 21.02 12 17.77 5.82 21.02 7 14.14 2 9.27 8.91 8.26 12 2"/>
  </symbol>
  <symbol id="icon-star-filled" viewBox="0 0 24 24" fill="currentColor">
    <polygon points="12 2 15.09 8.26 22 9.27 17 14.14 18.18 21.02 12 17.77 5.82 21.02 7 14.14 2 9.27 8.91 8.26 12 2"/>
  </symbol>
  <symbol id="icon-star-duotone" viewBox="0 0 24 24" fill="currentColor">
    <polygon opacity="0.3" points="12 2 15.09 8.26 22 9.27 17 14.14 18.18 21.02 12 17.77 5.82 21.02 7 14.14 2 9.27 8.91 8.26 12 2"/>
    <path d="M12 5.1l2.1 4.27 4.71.68-3.41 3.32.81 4.69L12 15.77l-4.21 2.29.81-4.69-3.41-3.32 4.71-.68L12 5.1z"/>
  </symbol>


  <!-- ================================================ -->
  <!--              📁 FICHIERS & MÉDIAS                -->
  <!-- ================================================ -->

  <!-- FILE -->
  <symbol id="icon-file-outline" viewBox="0 0 24 24" fill="none" stroke="currentColor" stroke-width="2" stroke-linecap="round" stroke-linejoin="round">
    <path d="M13 2H6a2 2 0 0 0-2 2v16a2 2 0 0 0 2 2h12a2 2 0 0 0 2-2V9z"/>
    <polyline points="13 2 13 9 20 9"/>
  </symbol>
  <symbol id="icon-file-filled" viewBox="0 0 24 24" fill="currentColor">
    <path d="M14 2H6a2 2 0 0 0-2 2v16a2 2 0 0 0 2 2h12a2 2 0 0 0 2-2V8l-6-6zm-1 1.5L18.5 8H13V3.5zM6 20V4h5v6h6v10H6z"/>
  </symbol>
  <symbol id="icon-file-duotone" viewBox="0 0 24 24" fill="currentColor">
    <path opacity="0.3" d="M13 2H6a2 2 0 0 0-2 2v16a2 2 0 0 0 2 2h12a2 2 0 0 0 2-2V9l-7-7z"/>
    <polyline points="13 2 13 9 20 9" fill="none" stroke="currentColor" stroke-width="2"/>
  </symbol>

  <!-- IMAGE -->
  <symbol id="icon-image-outline" viewBox="0 0 24 24" fill="none" stroke="currentColor" stroke-width="2" stroke-linecap="round" stroke-linejoin="round">
    <rect x="3" y="3" width="18" height="18" rx="2"/>
    <circle cx="8.5" cy="8.5" r="1.5"/>
    <polyline points="21 15 16 10 5 21"/>
  </symbol>
  <symbol id="icon-image-filled" viewBox="0 0 24 24" fill="currentColor">
    <path d="M21 3H3a2 2 0 0 0-2 2v14a2 2 0 0 0 2 2h18a2 2 0 0 0 2-2V5a2 2 0 0 0-2-2zM5 17l3.5-4.5 2.5 3 3.5-4.5 4.5 6H5z"/>
    <circle cx="8" cy="8" r="2"/>
  </symbol>
  <symbol id="icon-image-duotone" viewBox="0 0 24 24" fill="currentColor">
    <rect opacity="0.3" x="3" y="3" width="18" height="18" rx="2"/>
    <path d="M5 17l3.5-4.5 2.5 3 3.5-4.5 4.5 6H5z"/>
    <circle cx="8" cy="8" r="2"/>
  </symbol>

  <!-- PLAY -->
  <symbol id="icon-play-outline" viewBox="0 0 24 24" fill="none" stroke="currentColor" stroke-width="2" stroke-linecap="round" stroke-linejoin="round">
    <circle cx="12" cy="12" r="10"/>
    <polygon points="10 8 16 12 10 16 10 8" fill="currentColor" stroke="none"/>
  </symbol>
  <symbol id="icon-play-filled" viewBox="0 0 24 24" fill="currentColor">
    <path d="M12 2a10 10 0 1 0 0 20A10 10 0 0 0 12 2zm-2 14.5v-9l6 4.5-6 4.5z"/>
  </symbol>
  <symbol id="icon-play-duotone" viewBox="0 0 24 24" fill="currentColor">
    <circle opacity="0.3" cx="12" cy="12" r="10"/>
    <polygon points="10 8 16 12 10 16 10 8"/>
  </symbol>

  <!-- PLUS -->
  <symbol id="icon-plus-outline" viewBox="0 0 24 24" fill="none" stroke="currentColor" stroke-width="2" stroke-linecap="round">
    <line x1="12" y1="5" x2="12" y2="19"/>
    <line x1="5" y1="12" x2="19" y2="12"/>
  </symbol>
  <symbol id="icon-plus-filled" viewBox="0 0 24 24" fill="currentColor">
    <path d="M19 11h-6V5h-2v6H5v2h6v6h2v-6h6z"/>
  </symbol>
  <symbol id="icon-plus-duotone" viewBox="0 0 24 24" fill="currentColor">
    <circle opacity="0.3" cx="12" cy="12" r="10"/>
    <path d="M13 7h-2v4H7v2h4v4h2v-4h4v-2h-4V7z"/>
  </symbol>

  <!-- LINK -->
  <symbol id="icon-link-outline" viewBox="0 0 24 24" fill="none" stroke="currentColor" stroke-width="2" stroke-linecap="round" stroke-linejoin="round">
    <path d="M10 13a5 5 0 0 0 7.54.54l3-3a5 5 0 0 0-7.07-7.07l-1.72 1.71"/>
    <path d="M14 11a5 5 0 0 0-7.54-.54l-3 3a5 5 0 0 0 7.07 7.07l1.71-1.71"/>
  </symbol>
  <symbol id="icon-link-filled" viewBox="0 0 24 24" fill="currentColor">
    <path d="M3.9 12c0-1.71 1.39-3.1 3.1-3.1h4V7H7a5 5 0 0 0 0 10h4v-1.9H7c-1.71 0-3.1-1.39-3.1-3.1zM8 13h8v-2H8v2zm9-6h-4v1.9h4c1.71 0 3.1 1.39 3.1 3.1s-1.39 3.1-3.1 3.1h-4V17h4a5 5 0 0 0 0-10z"/>
  </symbol>
  <symbol id="icon-link-duotone" viewBox="0 0 24 24" fill="currentColor">
    <path opacity="0.3" d="M10 13a5 5 0 0 0 7.54.54l3-3a5 5 0 0 0-7.07-7.07l-1.72 1.71"/>
    <path d="M14 11a5 5 0 0 0-7.54-.54l-3 3a5 5 0 0 0 7.07 7.07l1.71-1.71"/>
  </symbol>

</svg>
